<svg width="20" height="19" viewBox="0 0 20 19" fill="none" xmlns="http://www.w3.org/2000/svg">
<g clip-path="url(#clip0_248_2)">
<path d="M9.57893 3.15247H4.06208C3.64404 3.15247 3.24311 3.31853 2.94751 3.61414C2.65191 3.90974 2.48584 4.31066 2.48584 4.72871V15.7624C2.48584 16.1805 2.65191 16.5814 2.94751 16.877C3.24311 17.1726 3.64404 17.3387 4.06208 17.3387H15.0958C15.5138 17.3387 15.9148 17.1726 16.2104 16.877C16.506 16.5814 16.672 16.1805 16.672 15.7624V10.2456" stroke="#9F9F9F" stroke-width="1.57624" stroke-linecap="round" stroke-linejoin="round"/>
<path d="M15.4901 1.97027C15.8037 1.65673 16.2289 1.48059 16.6723 1.48059C17.1157 1.48059 17.541 1.65673 17.8545 1.97027C18.168 2.2838 18.3442 2.70904 18.3442 3.15245C18.3442 3.59585 18.168 4.0211 17.8545 4.33463L10.3673 11.8218L7.21484 12.6099L8.00297 9.45742L15.4901 1.97027Z" stroke="#9F9F9F" stroke-width="1.57624" stroke-linecap="round" stroke-linejoin="round"/>
</g>
<defs>
<clipPath id="clip0_248_2">
<rect width="18.9149" height="18.9149" fill="white" transform="translate(0.909668)"/>
</clipPath>
</defs>
</svg>
